<?xml version="1.0" encoding="UTF-8" standalone="no"?>
<!-- Created with Inkscape (http://www.inkscape.org/) -->

<svg
   xmlns:dc="http://purl.org/dc/elements/1.1/"
   xmlns:cc="http://creativecommons.org/ns#"
   xmlns:rdf="http://www.w3.org/1999/02/22-rdf-syntax-ns#"
   xmlns:svg="http://www.w3.org/2000/svg"
   xmlns="http://www.w3.org/2000/svg"
   xmlns:sodipodi="http://sodipodi.sourceforge.net/DTD/sodipodi-0.dtd"
   xmlns:inkscape="http://www.inkscape.org/namespaces/inkscape"
   width="210mm"
   height="297mm"
   viewBox="0 0 210 297"
   version="1.1"
   id="svg8"
   inkscape:version="0.92.5 (2060ec1f9f, 2020-04-08)"
   sodipodi:docname="gravity-3.svg">
  <defs
     id="defs2">
    <inkscape:path-effect
       effect="perspective-envelope"
       up_left_point="370.57812,245.21289"
       up_right_point="565.04803,241.88025"
       down_left_point="357.16641,284.09375"
       down_right_point="566.16568,257.43259"
       id="path-effect943"
       is_visible="true"
       deform_type="envelope_deformation"
       horizontal_mirror="false"
       vertical_mirror="false"
       overflow_perspective="false" />
  </defs>
  <sodipodi:namedview
     id="base"
     pagecolor="#ffffff"
     bordercolor="#666666"
     borderopacity="1.0"
     inkscape:pageopacity="0.0"
     inkscape:pageshadow="2"
     inkscape:zoom="0.98994949"
     inkscape:cx="234.6739"
     inkscape:cy="611.69136"
     inkscape:document-units="mm"
     inkscape:current-layer="layer1"
     showgrid="false"
     inkscape:window-width="1920"
     inkscape:window-height="1052"
     inkscape:window-x="0"
     inkscape:window-y="1"
     inkscape:window-maximized="1"
     inkscape:snap-global="false" />
  <metadata
     id="metadata5">
    <rdf:RDF>
      <cc:Work
         rdf:about="">
        <dc:format>image/svg+xml</dc:format>
        <dc:type
           rdf:resource="http://purl.org/dc/dcmitype/StillImage" />
        <dc:title></dc:title>
      </cc:Work>
    </rdf:RDF>
  </metadata>
  <g
     inkscape:label="Layer 1"
     inkscape:groupmode="layer"
     id="layer1">
    <path
       style="opacity:1;vector-effect:none;fill:#000000;fill-opacity:1;stroke:none;stroke-width:2.28072762;stroke-linecap:round;stroke-linejoin:round;stroke-miterlimit:4;stroke-dasharray:none;stroke-dashoffset:0;stroke-opacity:1;paint-order:normal"
       id="path897"
       d="m 162.83347,61.605036 c 0.0118,0.744776 0.021,1.492836 0.0266,2.239628 6.9e-4,1.25861 0.0167,2.515998 0.0346,3.773182 0.0221,1.229402 0.0345,2.459849 0.0574,3.689084 0.0283,1.157447 0.0388,2.317637 0.0491,3.477559 0.0104,1.226315 0.0104,2.452512 0.0117,3.679116 0.004,1.235847 0.013,2.471779 0.008,3.707654 -0.008,1.310396 -0.007,2.620536 0.0118,3.92996 0.0137,1.117705 0.0341,2.234439 0.0484,3.352062 0.0135,0.960337 0.0132,1.921437 0.0118,2.882387 0.003,1.055607 -2e-5,2.111163 -6.9e-4,3.166781 0.005,1.091662 -0.007,2.182518 -0.0193,3.273272 -0.0141,1.007484 -0.0154,2.015919 -0.0206,3.024039 -0.007,0.99958 -0.0104,1.99919 -0.009,2.99905 -0.0137,0.97773 -0.0222,1.9559 -0.0305,2.93415 0.005,0.80531 -0.0347,1.60236 -0.0676,2.39887 -0.023,0.79141 -0.068,1.5741 -0.10233,2.36097 -0.0206,0.64844 -0.0613,1.28843 -0.0897,1.93366 -0.0328,0.74099 -0.0448,1.48832 -0.0538,2.23485 -0.008,0.82197 -0.0104,1.6443 -0.013,2.46655 -0.005,0.81412 -0.005,1.62844 -0.005,2.44268 -0.004,0.80488 -0.001,1.60979 3.6e-4,2.41466 -4e-5,0.79252 -0.001,1.58512 -0.005,2.3776 6.9e-4,0.86601 -0.003,1.73202 -0.003,2.59799 -0.003,0.9238 -0.003,1.84783 -0.001,2.77167 0.004,0.87836 0.004,1.75673 0.001,2.63513 -0.005,0.96643 -0.003,1.93295 -0.007,2.8994 -0.001,1.02111 -0.003,2.04185 0.0148,3.06183 0.0183,0.96641 0.0551,1.9281 0.0988,2.88649 0.0435,0.78989 0.0683,1.58707 0.10259,2.38075 0.0261,0.76784 0.0619,1.53243 0.10899,2.29087 0.0398,0.8111 0.10429,1.60733 0.16044,2.40866 0.0333,0.49837 0.0174,0.25267 0.0476,0.73743 0.12778,2.33604 -0.95421,2.88772 -1.08196,0.55169 v 0 c -0.0196,-0.42566 -0.009,-0.20883 -0.0317,-0.65028 -0.0475,-0.81994 -0.1116,-1.62932 -0.16041,-2.44846 -0.0482,-0.82057 -0.0886,-1.64537 -0.12126,-2.47316 -0.0316,-0.79668 -0.0587,-1.59488 -0.0891,-2.39202 -0.038,-1.03186 -0.0606,-2.06827 -0.0813,-3.10457 -0.0228,-1.08205 -0.0335,-2.16483 -0.027,-3.24923 -0.004,-0.96645 -0.003,-1.93301 -0.007,-2.89944 -0.001,-0.87844 -0.003,-1.75685 0.001,-2.63521 6.9e-4,-0.92395 0.001,-1.84807 -0.001,-2.77191 -3.6e-4,-0.86632 -0.004,-1.73257 -0.003,-2.5989 -0.004,-0.79352 -0.004,-1.58711 -0.004,-2.38071 0.003,-0.80766 0.007,-1.61533 0.004,-2.42303 0.003,-0.82301 0.005,-1.64602 0.005,-2.46903 0.004,-0.8462 0.0104,-1.69228 0.0189,-2.53816 0.008,-0.84593 0.0142,-1.69309 0.0388,-2.53642 0.0253,-0.66784 0.0683,-1.32246 0.10624,-1.9838 0.0368,-0.75723 0.0732,-1.51519 0.0953,-2.27799 0.0245,-0.71476 0.0667,-1.4241 0.0747,-2.14347 0.0153,-0.94253 0.039,-1.88408 0.0431,-2.82798 0.004,-1.01177 0.005,-2.02361 0.008,-3.03528 0.007,-1.02889 0.0192,-2.057018 0.0287,-3.085602 0.0118,-1.049608 0.0315,-2.099018 0.0238,-3.149755 -0.003,-1.049404 -0.007,-2.098751 -0.009,-3.148129 -0.005,-0.943595 -0.013,-1.887122 -0.0142,-2.830928 -0.003,-1.112231 -0.005,-2.224509 -0.0168,-3.336308 -0.008,-1.338242 -0.005,-2.676421 -0.013,-4.014685 -0.008,-1.22971 -0.003,-2.459753 -0.005,-3.68965 -0.007,-1.205817 -0.0147,-2.411811 -0.0247,-3.617297 -0.0104,-1.133006 -0.0279,-2.265178 -0.0442,-3.397525 -0.0201,-1.237238 -0.0295,-2.475309 -0.0436,-3.713295 -0.02,-1.244774 -0.0375,-2.490406 -0.0667,-3.73339 -0.0202,-0.64969 -0.0397,-1.305491 -0.1095,-1.92669 -0.11512,-2.46184 1.02505,-2.959213 1.14024,-0.49737 z"
       inkscape:connector-curvature="0"
       inkscape:export-xdpi="197.98991"
       inkscape:export-ydpi="197.98991" />
    <path
       style="opacity:1;vector-effect:none;fill:#000000;fill-opacity:1;stroke:none;stroke-width:1;stroke-linecap:round;stroke-linejoin:round;stroke-miterlimit:4;stroke-dasharray:none;stroke-dashoffset:0;stroke-opacity:1;paint-order:normal"
       id="path899"
       d="m 160.00167,59.310862 c 0.26267,0.03645 0.52896,0.03908 0.7936,0.05203 0.29951,0.0099 0.59827,0.0362 0.89693,0.06013 0.30044,0.01963 0.60114,0.0347 0.90172,0.05255 0.30522,0.01669 0.60941,0.04662 0.91408,0.07064 0.25256,0.01736 0.50541,0.02921 0.75847,0.03547 0.14694,0.0024 0.0745,0.0013 0.21739,0.0029 0.84601,0.02619 0.80897,1.222631 -0.037,1.196438 v 0 c -0.14951,-0.0075 -0.0736,-0.0036 -0.22761,-0.0118 -0.27001,-0.01461 -0.54019,-0.02862 -0.80932,-0.05572 -0.29814,-0.02653 -0.5957,-0.06018 -0.89482,-0.07435 -0.3027,-0.02323 -0.60623,-0.0249 -0.90916,-0.04466 -0.28624,-0.01939 -0.5707,-0.05788 -0.85732,-0.07148 -0.24915,-0.0077 -0.5,-0.0095 -0.74692,0.02995 -0.87832,0 -0.87832,-1.242129 0,-1.242129 z"
       inkscape:connector-curvature="0"
       inkscape:export-xdpi="197.98991"
       inkscape:export-ydpi="197.98991" />
    <path
       style="opacity:1;vector-effect:none;fill:#000000;fill-opacity:1;stroke:none;stroke-width:1;stroke-linecap:round;stroke-linejoin:round;stroke-miterlimit:4;stroke-dasharray:none;stroke-dashoffset:0;stroke-opacity:1;paint-order:normal"
       id="path901"
       d="m 160.00621,152.05491 c 0.24513,0.0311 0.49319,0.0299 0.73975,0.0451 0.32883,0.0213 0.65673,0.0544 0.98567,0.0743 0.31177,0.0201 0.62429,0.0238 0.93657,0.0296 0.29776,0.002 0.59522,0.0154 0.89298,0.0149 0.2242,-0.009 0.44786,-0.0259 0.67009,-0.0567 0.18062,-0.027 0.36203,-0.0476 0.54395,-0.0635 0.17009,-0.019 0.33968,-0.0201 0.51015,-0.007 0.0218,0.002 0.0435,0.003 0.0653,0.005 0.86455,0.0692 0.76675,1.2918 -0.0978,1.22265 v 0 c -0.0208,-0.002 -0.0416,-0.003 -0.0624,-0.005 -0.10771,-0.009 -0.21418,-0.016 -0.32233,-0.003 -0.16789,0.0108 -0.33546,0.0254 -0.50278,0.0429 -0.27065,0.0248 -0.54215,0.0311 -0.81391,0.0304 -0.30472,-0.006 -0.60951,0.002 -0.91411,-0.011 -0.32578,-0.0111 -0.65118,-0.0291 -0.97672,-0.0455 -0.32231,-0.0201 -0.64435,-0.0469 -0.96712,-0.0573 -0.22908,-0.006 -0.45994,-0.0112 -0.68727,0.023 -0.87617,0 -0.87617,-1.23908 0,-1.23908 z"
       inkscape:connector-curvature="0"
       inkscape:export-xdpi="197.98991"
       inkscape:export-ydpi="197.98991" />
    <text
       xml:space="preserve"
       style="font-style:normal;font-variant:normal;font-weight:600;font-stretch:normal;font-size:6.76828289px;line-height:1;font-family:'Open Sans';-inkscape-font-specification:'Open Sans Semi-Bold';text-align:start;letter-spacing:0px;word-spacing:0px;text-anchor:start;fill:#000000;fill-opacity:1;stroke:none;stroke-width:0.33841413;"
       x="144.73318"
       y="54.499069"
       id="text905"
       inkscape:export-xdpi="197.98991"
       inkscape:export-ydpi="197.98991"><tspan
         sodipodi:role="line"
         id="tspan903"
         x="144.73318"
         y="54.499069"
         style="stroke-width:0.33841413;-inkscape-font-specification:'Open Sans Semi-Bold';font-family:'Open Sans';font-weight:600;font-style:normal;font-stretch:normal;font-variant:normal;">h = 1/2 g t<tspan
   style="font-size:4.39938354px;baseline-shift:super;stroke-width:0.33841413;-inkscape-font-specification:'Open Sans Semi-Bold';font-family:'Open Sans';font-weight:600;font-style:normal;font-stretch:normal;font-variant:normal;"
   id="tspan907">2</tspan></tspan></text>
    <rect
       style="opacity:1;vector-effect:none;fill:#ffffff;fill-opacity:1;stroke:none;stroke-width:0.99483198;stroke-linecap:round;stroke-linejoin:round;stroke-miterlimit:4;stroke-dasharray:none;stroke-dashoffset:0;stroke-opacity:1;paint-order:normal"
       id="rect964"
       width="179.60512"
       height="142.45467"
       x="15.501633"
       y="20.643307"
       inkscape:export-xdpi="197.98991"
       inkscape:export-ydpi="197.98991" />
    <path
       sodipodi:nodetypes="cccccccccccccccccccccccccccccc"
       inkscape:connector-curvature="0"
       id="path831"
       d="m 122.35839,95.874516 c -2.70878,-0.715855 -5.09654,1.621368 -4.31336,4.343204 -0.42431,2.82742 0.82388,6.61217 -1.50936,8.60089 -2.64396,0.66619 -3.65216,3.41481 -3.13524,5.89768 0.14615,8.52113 0.30914,17.05228 0.6412,25.56916 -0.18934,2.95784 2.95513,4.27332 5.44259,3.46212 3.36344,-0.71126 7.18483,0.55894 10.2404,-1.33918 2.43141,-2.29624 1.36189,-5.89055 1.59782,-8.8445 -0.11124,-6.9593 1.72913,-17.10802 -1.02673,-22.85842 -2.02082,-1.31712 -4.58085,-2.53498 -4.64211,-5.37267 -0.42155,-2.93227 0.77256,-6.336703 -0.95654,-8.917885 -0.66644,-0.498794 -1.53852,-0.545007 -2.33867,-0.540399 z m 0.55707,2.122869 0.0268,0.100042 z m -1.02888,0.369485 c 2.6677,0.785492 0.42606,4.82824 1.29485,6.91571 -0.23745,3.82267 3.41136,5.63772 5.36189,8.03991 0.27514,5.87692 0.90731,11.90809 0.36582,17.83829 -0.18413,2.71603 0.0952,5.47875 -0.13246,8.1622 -1.24911,2.76269 -4.72022,1.30263 -7.04202,1.76546 -2.56023,0.45345 -6.3652,0.84458 -5.22174,-2.96765 -0.41495,-8.59792 -0.51235,-17.23569 -0.60029,-25.85197 1.28777,-1.58856 4.36357,-1.72072 4.18324,-4.36545 0.49214,-3.13467 0.35234,-6.30578 0.54015,-9.457951 0.41713,-0.02189 0.83296,-0.06504 1.25056,-0.07855 z m -5.16299,13.01213 -0.0934,0.0274 z"
       style="opacity:1;vector-effect:none;fill:#000000;fill-opacity:1;stroke:none;stroke-width:1;stroke-linecap:round;stroke-linejoin:round;stroke-miterlimit:4;stroke-dasharray:none;stroke-dashoffset:0;stroke-opacity:1;paint-order:normal"
       inkscape:export-xdpi="197.98991"
       inkscape:export-ydpi="197.98991" />
    <path
       style="opacity:1;vector-effect:none;fill:#000000;fill-opacity:1;stroke:none;stroke-width:1;stroke-linecap:round;stroke-linejoin:round;stroke-miterlimit:4;stroke-dasharray:none;stroke-dashoffset:0;stroke-opacity:1;paint-order:normal"
       d="m 115.6663,41.972632 c -0.63454,-0.0076 -1.26705,0.157088 -1.85105,0.405143 -0.76808,0.305808 -1.55592,0.761682 -1.9389,1.527037 -0.38246,0.736367 -0.32218,1.590651 -0.23668,2.387452 -0.007,0.641011 0.0115,1.286126 -0.0434,1.925463 -4.10275,4.312817 -8.06155,3.2336 -13.422951,4.043683 -1.36474,0.139414 -2.7286,0.370011 -4.102074,0.339513 -1.44676,0.368699 -0.40391,2.317832 0.82269,1.719276 2.719874,-0.150017 5.401845,-0.631132 8.101315,-0.956014 1.96476,-0.200194 3.95782,-0.135914 5.9092,-0.432017 1.80495,-0.365953 2.03493,-1.141722 3.02617,-2.831351 0.78026,-0.983115 1.4281,-2.186334 1.47071,-3.290237 0.0398,-0.559707 -0.0753,-1.114763 -0.0631,-1.672767 0.005,-0.35256 0.19791,-0.677011 0.50488,-0.850593 0.54075,-0.320569 1.16097,-0.559491 1.79627,-0.56379 0.0824,-0.02154 0.32922,0.05666 0.40205,0.07803 0.1886,0.423214 -0.0401,0.881557 -0.26665,1.24075 -0.38354,0.539782 -0.87202,1.016352 -1.11518,1.645378 -0.32217,0.825949 -0.31148,1.837774 0.20567,2.581238 0.22408,0.566253 0.62253,1.349292 1.14309,1.450556 0.82597,0.160679 1.91596,0.575337 3.07681,0.729671 1.30932,0.255455 2.66915,0.380262 3.91965,0.840777 -2.67869,0.09215 -5.27273,0.875117 -7.94318,1.055748 -0.97147,-0.114861 -1.64269,0.189212 -1.06763,1.249537 0.15138,1.305746 2.22909,0.216308 3.18533,0.300758 1.69412,-0.382045 3.42195,-0.502367 5.15524,-0.451136 1.00784,-0.309446 2.83899,1.49017 0.86352,1.332219 -1.77228,0.38626 -3.58478,0.458706 -5.37125,0.767395 -1.28488,0.201629 -2.61136,0.400206 -3.89899,0.261999 -0.38557,-0.214207 0.13416,1.379772 -0.0971,1.979723 0.89306,-0.467212 2.15218,-0.02196 3.16673,-0.265615 1.64718,-0.07207 3.2564,-0.501184 4.88497,-0.663009 0.86104,0.09202 3.21173,0.04756 2.61018,1.365808 -0.94282,1.179701 -2.36372,-0.154458 -3.57239,0.245462 -2.43144,0.346657 -4.85155,0.913096 -7.3086,0.959631 0.0352,0.681379 -0.0336,1.493649 0.34882,1.755449 -0.0857,-3.7e-5 -0.0785,0.04714 0.007,0.0057 0.18431,0.120949 0.47017,0.118142 0.92035,-0.08578 2.24933,-0.111501 4.48486,-0.413489 6.73706,-0.473358 1.07388,-0.465553 2.44318,0.300852 1.77508,1.488281 -2.62986,0.80151 -5.41759,0.740219 -8.13955,0.808736 -1.45519,-0.122484 -3.09535,0.283181 -4.42867,-0.322977 -0.95854,-0.798584 -1.65704,-1.938981 -2.86184,-2.431375 -1.69787,-1.010126 -3.6702,-1.419857 -5.62185,-1.55134 -2.759981,-0.299976 -5.569611,-0.219855 -8.300275,0.274918 -1.40036,0.679641 0.0769,2.294441 1.194764,1.555978 2.02034,-0.190984 4.05551,-0.391739 6.085931,-0.171051 2.46852,0.149673 5.14173,0.582793 7.01921,2.324407 0.87964,1.121635 2.07108,2.237087 3.61528,2.033469 3.1338,0.133958 6.28336,0.0288 9.40408,-0.283705 1.3358,-0.309523 3.20133,-0.247425 3.81424,-1.740461 0.72476,-1.075849 -0.90253,-2.477738 0.47801,-3.039091 1.10469,-0.984848 1.00627,-2.932809 -0.30645,-3.682979 1.43314,-0.850011 0.17457,-2.596473 -0.15812,-3.245797 1.36568,-0.767001 0.35348,-2.718226 -0.97772,-2.795696 -2.25201,-0.892731 -5.08359,-1.186225 -7.66,-1.716175 0.0425,-0.731986 -0.54669,-1.323822 -0.15761,-1.993675 0.32118,-0.500621 0.77635,-0.909733 1.03197,-1.455208 0.45142,-0.813205 0.62814,-1.862588 0.16278,-2.708363 -0.24414,-0.506685 -0.74964,-0.838059 -1.29397,-0.93741 -0.21014,-0.04411 -0.42204,-0.06567 -0.63356,-0.06821 z m -1.31723,13.194543 -0.0258,0.0026 z"
       id="path833"
       inkscape:connector-curvature="0"
       sodipodi:nodetypes="ccccccccccccccccccccccccccccccccccccccccccccccccccccccccccccccccc"
       inkscape:export-xdpi="197.98991"
       inkscape:export-ydpi="197.98991" />
    <path
       style="opacity:1;vector-effect:none;fill:#000000;fill-opacity:1;stroke:none;stroke-width:1;stroke-linecap:round;stroke-linejoin:round;stroke-miterlimit:4;stroke-dasharray:none;stroke-dashoffset:0;stroke-opacity:1;paint-order:normal"
       id="path884"
       d="m 113.23905,101.34319 c 0.006,-0.0544 0.0146,-0.10867 0.0182,-0.16332 0.008,-0.11918 0.0322,-0.78672 0.0354,-0.84097 0.0695,-1.207896 0.0379,-0.28797 0.13406,-1.768519 0.0283,-0.436542 0.046,-0.873707 0.069,-1.310561 0.0784,-2.159841 0.0482,-1.047374 0.0869,-3.337502 -0.009,-0.432406 0.60293,-0.444539 0.61151,-0.01214 v 0 c 0.12953,2.287265 0.0544,1.176099 0.22152,3.333758 0.10099,1.150125 0.19726,2.311228 0.43445,3.444014 0.0448,0.21404 0.0703,0.27322 0.13463,0.46127 0.13715,1.23436 -1.6085,1.42832 -1.74565,0.19396 z"
       inkscape:connector-curvature="0"
       inkscape:export-xdpi="197.98991"
       inkscape:export-ydpi="197.98991" />
    <path
       style="opacity:1;vector-effect:none;fill:#000000;fill-opacity:1;stroke:none;stroke-width:1;stroke-linecap:round;stroke-linejoin:round;stroke-miterlimit:4;stroke-dasharray:none;stroke-dashoffset:0;stroke-opacity:1;paint-order:normal"
       id="path888"
       d="m 121.8552,93.875367 c 0.0283,-0.131612 0.0631,-0.262004 0.085,-0.39483 0.0875,-0.529397 0.1275,-1.027723 0.17086,-1.565984 0.11002,-1.365983 0.15053,-2.73218 0.19476,-4.101576 0.006,-0.563345 0.0117,-1.126688 0.0175,-1.690031 -0.006,-0.468064 0.65643,-0.475864 0.66194,-0.0078 v 0 c 0.0191,0.56308 0.0383,1.126161 0.0574,1.689242 0.057,1.026145 0.10428,1.933321 0.17256,2.953467 0.0606,0.905886 0.10724,1.825258 0.25551,2.722682 0.022,0.132826 0.0567,0.263218 0.085,0.39483 0,1.202547 -1.70066,1.202547 -1.70066,0 z"
       inkscape:connector-curvature="0"
       inkscape:export-xdpi="197.98991"
       inkscape:export-ydpi="197.98991" />
    <path
       style="opacity:1;vector-effect:none;fill:#000000;fill-opacity:1;stroke:none;stroke-width:1;stroke-linecap:round;stroke-linejoin:round;stroke-miterlimit:4;stroke-dasharray:none;stroke-dashoffset:0;stroke-opacity:1;paint-order:normal"
       id="path890"
       d="m 128.6427,105.76702 c 0.008,-0.066 0.0203,-0.13152 0.0248,-0.19784 0.008,-0.11604 0.006,-0.23253 0.0117,-0.3487 0.01,-0.20332 0.0657,-1.14869 0.0711,-1.26922 0.0305,-0.68018 0.0514,-1.36076 0.0804,-2.041 0.0521,-2.708243 -0.13707,-5.413245 -0.30936,-8.114154 -0.03,-0.397142 0.5316,-0.439632 0.56164,-0.04249 v 0 c 0.23727,2.710309 0.51907,5.416351 0.77713,8.124724 0.0398,0.37982 0.0813,0.75947 0.11931,1.13947 0.0862,0.86145 0.13808,1.7458 0.40674,2.57487 0.12328,1.23278 -1.62014,1.40713 -1.74342,0.17434 z"
       inkscape:connector-curvature="0"
       inkscape:export-xdpi="197.98991"
       inkscape:export-ydpi="197.98991" />
    <path
       style="opacity:1;vector-effect:none;fill:#000000;fill-opacity:1;stroke:none;stroke-width:1;stroke-linecap:round;stroke-linejoin:round;stroke-miterlimit:4;stroke-dasharray:none;stroke-dashoffset:0;stroke-opacity:1;paint-order:normal"
       id="path898"
       d="m 116.27886,93.002062 c 0.27882,-1.473552 0.21362,-2.983661 0.1819,-4.47458 -0.0499,-0.638829 0.85355,-0.709374 0.90344,-0.07055 v 0 c 0.20429,1.516248 0.39729,3.034663 0.64116,4.545129 0,1.220814 -1.7265,1.220814 -1.7265,10e-7 z"
       inkscape:connector-curvature="0"
       inkscape:export-xdpi="197.98991"
       inkscape:export-ydpi="197.98991" />
    <path
       inkscape:connector-curvature="0"
       d="m 125.28204,92.269153 c 0.006,-0.05444 0.0146,-0.108662 0.0182,-0.163319 0.008,-0.119177 0.0322,-0.786713 0.0354,-0.840965 0.0695,-1.207897 0.0379,-0.287968 0.13406,-1.76852 0.0283,-0.436542 0.046,-0.873707 0.069,-1.310561 0.0784,-2.159841 0.0482,-1.047374 0.0869,-3.337502 -0.009,-0.432406 0.60293,-0.444539 0.61151,-0.01214 v 0 c 0.12953,2.287265 0.0544,1.176099 0.22152,3.333758 0.10099,1.150125 0.19726,2.311228 0.43445,3.444018 0.0448,0.214032 0.0703,0.273216 0.13463,0.461261 0.13715,1.234366 -1.60851,1.428327 -1.74566,0.193963 z"
       id="path900"
       style="opacity:1;vector-effect:none;fill:#000000;fill-opacity:1;stroke:none;stroke-width:1;stroke-linecap:round;stroke-linejoin:round;stroke-miterlimit:4;stroke-dasharray:none;stroke-dashoffset:0;stroke-opacity:1;paint-order:normal"
       inkscape:export-xdpi="197.98991"
       inkscape:export-ydpi="197.98991" />
    <path
       style="font-style:normal;font-variant:normal;font-weight:bold;font-stretch:normal;font-size:14.11111069px;line-height:1;font-family:OpenDyslexicAlta;-inkscape-font-specification:'OpenDyslexicAlta Bold';text-align:start;letter-spacing:0px;word-spacing:0px;text-anchor:start;fill:#5599ff;fill-opacity:1;stroke:none;stroke-width:0.99999994"
       d="m 370.57812,245.21289 c 0,0 -5.01673,37.80995 -5.01673,37.80995 0,0 8.96269,-1.14333 8.96269,-1.14333 1.84558,-2.60678 3.78101,-5.50086 5.85619,-8.53819 2.0122,-3.01237 3.98011,-5.90613 5.87035,-8.72739 0,0 0.58207,15.69542 0.58207,15.69542 0,0 8.4459,-1.07741 8.4459,-1.07741 0,0 19.58092,-34.7779 19.58092,-34.7779 0,0 -6.13537,0.10514 -6.13537,0.10514 -2.27474,3.65763 -4.63104,7.39376 -7.0853,11.25871 -2.42522,3.89446 -4.9295,8.01338 -7.32897,11.91886 0,0 -2.07052,-14.02089 -2.07052,-14.02089 0,0 -5.17311,0.23832 -5.17311,0.23832 -1.89892,2.41643 -3.90756,4.85438 -5.96071,7.41379 -2.06517,2.57872 -4.12445,5.12656 -6.14618,7.6879 0,0 1.70501,-23.94728 1.70501,-23.94728 0,0 -6.08624,0.1043 -6.08624,0.1043 z m 51.7558,-0.88694 c 0,0 -10.0598,32.73794 -10.0598,32.73794 0,0 7.46892,-0.95278 7.46892,-0.95278 0,0 2.88362,-10.15027 2.88362,-10.15027 0,0 14.30303,-1.34631 14.30303,-1.34631 0,0 -2.56005,9.63073 -2.56005,9.63073 0,0 7.46702,-0.95254 7.46702,-0.95254 0,0 7.09558,-29.42259 7.09558,-29.42259 0,0 -6.51796,0.1117 -6.51796,0.1117 0,0 -3.64144,13.69889 -3.64144,13.69889 0,0 -14.07006,0.97224 -14.07006,0.97224 0,0 4.10172,-14.4379 4.10172,-14.4379 0,0 -6.47058,0.11089 -6.47058,0.11089 z m 34.79227,-0.59624 c 0,0 -7.71688,28.597 -7.71688,28.597 0,0 7.72353,-0.98526 7.72353,-0.98526 0,0 6.0322,-27.71523 6.0322,-27.71523 0,0 -6.03885,0.10349 -6.03885,0.10349 z m 13.99413,-0.23982 c 0,0 -0.93892,4.26812 -0.93892,4.26812 0,0 19.54129,-0.69962 19.54129,-0.69962 0,0 -23.78261,17.49664 -23.78261,17.49664 0,0 -1.28741,5.82715 -1.28741,5.82715 0,0 31.0054,-3.95523 31.0054,-3.95523 0,0 0.91353,-5.6547 0.91353,-5.6547 0,0 -21.5207,2.20234 -21.5207,2.20234 0,0 23.40371,-16.8374 23.40371,-16.8374 0,0 0.50829,-3.12444 0.50829,-3.12444 0,0 -27.84258,0.47714 -27.84258,0.47714 z m 35.89263,-0.61509 c 0,0 -0.51216,3.58291 -0.51216,3.58291 0,0 19.54307,-0.69968 19.54307,-0.69968 0,0 -22.10892,14.80933 -22.10892,14.80933 0,0 -0.70612,4.89382 -0.70612,4.89382 0,0 31.00539,-3.95523 31.00539,-3.95523 0,0 0.26609,-4.61516 0.26609,-4.61516 0,0 -21.52254,2.20252 -21.52254,2.20252 0,0 21.72633,-14.14416 21.72633,-14.14416 0,0 0.15145,-2.55149 0.15145,-2.55149 0,0 -27.84259,0.47714 -27.84259,0.47714 z m 42.21824,-0.436 c 0,0 -6.3816,0.1712 -6.3816,0.1712 0,0 -0.23264,7.84574 -0.23264,7.84574 0,0 -0.63896,4.59483 -0.63896,4.59483 0,0 8.21964,-0.78938 8.21964,-0.78938 0,0 -0.74566,-4.27569 -0.74566,-4.27569 0,0 -0.22078,-7.5467 -0.22078,-7.5467 z m 14.87586,-0.28398 c 0,0 -6.38035,0.1664 -6.38035,0.1664 0,0 0.24546,7.0781 0.24546,7.0781 0,0 -0.36191,4.14999 -0.36191,4.14999 0,0 8.21964,-0.78937 8.21964,-0.78937 0,0 -1.02271,-3.83087 -1.02271,-3.83087 0,0 -0.70013,-6.77425 -0.70013,-6.77425 z m -21.37158,14.48964 c 0,0 -0.72491,3.8695 -0.72491,3.8695 0,0 7.93099,-1.01173 7.93099,-1.01173 0,0 -0.55549,-3.56157 -0.55549,-3.56157 0,0 -6.65059,0.7038 -6.65059,0.7038 z m 15.73615,-1.66528 c 0,0 -0.49533,3.4981 -0.49533,3.4981 0,0 7.93099,-1.01173 7.93099,-1.01173 0,0 -0.78693,-3.18997 -0.78693,-3.18997 0,0 -6.64873,0.7036 -6.64873,0.7036 z"
       transform="matrix(0.15793412,0,0,0.47668636,48.891224,-46.976799)"
       id="path920"
       inkscape:path-effect="#path-effect943"
       inkscape:original-d="m 370.57812,245.21289 8.69336,38.88086 h 9.28125 c 1.06666,-2.61333 2.13333,-5.54729 3.30665,-8.64063 1.11998,-3.09333 2.23998,-6.08033 3.30664,-9.01367 l 6.13281,17.6543 h 8.74609 l 9.81446,-38.88086 h -6.82813 c -1.27997,4.10667 -2.61333,8.26654 -4,12.5332 -1.33334,4.26667 -2.66534,8.74761 -3.94531,12.96094 l -7.20117,-15.83984 h -5.65235 c -1.22668,2.50666 -2.56119,5.01167 -3.89453,7.625 -1.33334,2.61333 -2.66534,5.17437 -3.94531,7.73437 l -7.04102,-25.01367 z m 57.59961,0 -0.5332,38.88086 h 7.73438 V 271.7207 h 15.14648 v 12.37305 h 7.73242 l -0.47851,-38.88086 h -7.25391 v 17.59961 h -15.14648 v -17.59961 z m 38.72071,0 -0.79883,38.88086 h 7.99805 l -0.47852,-38.88086 z m 15.57422,0 v 6.1875 h 21.49218 l -22.08007,24.26563 v 8.42773 h 32.10742 v -9.38672 h -22.66602 l 22.13281,-24.32031 v -5.17383 z m 39.94531,0 v 6.1875 h 21.49414 l -22.08008,24.26563 v 8.42773 h 32.10742 v -9.38672 h -22.66797 l 22.13282,-24.32031 v -5.17383 z m 46.98633,0.64063 -7.0918,0.10546 v 16.74805 l -0.5332,9.70508 h 8.69336 l -0.80078,-9.70508 z m 16.53515,0 -7.09375,0.10546 v 16.74805 l -0.5332,9.70508 h 8.69336 l -0.80078,-9.70508 z m -23.30859,30.13281 -0.63867,8.10742 h 8.21289 l -0.58594,-8.10742 z m 16.53516,0 -0.64063,8.10742 h 8.21289 l -0.58594,-8.10742 z"
       inkscape:connector-curvature="0"
       inkscape:export-xdpi="197.98991"
       inkscape:export-ydpi="197.98991" />
    <g
       id="g874"
       transform="translate(3.664446)"
       inkscape:export-xdpi="197.98991"
       inkscape:export-ydpi="197.98991">
      <path
         sodipodi:nodetypes="cccccccccccccccccccccccccccccc"
         inkscape:connector-curvature="0"
         id="path815"
         d="m 60.209116,29.484225 c -2.70878,-0.715855 -5.09654,1.621368 -4.31336,4.343204 -0.42431,2.827418 0.82388,6.612173 -1.50936,8.600894 -2.64396,0.666185 -3.65216,3.414807 -3.13524,5.897677 0.14615,8.521133 0.30914,17.052284 0.6412,25.569163 -0.18934,2.957837 2.95513,4.273316 5.44259,3.462119 3.36344,-0.711265 7.18483,0.558939 10.240394,-1.339186 2.43141,-2.296236 1.36189,-5.890545 1.59782,-8.844499 -0.11124,-6.959295 1.72913,-17.108019 -1.02673,-22.858419 -2.020814,-1.317119 -4.580844,-2.534983 -4.642104,-5.372672 -0.42155,-2.932272 0.77256,-6.3367 -0.95654,-8.917882 -0.66644,-0.498794 -1.53852,-0.545007 -2.33867,-0.540399 z m 0.55707,2.122869 0.0268,0.100042 z m -1.02888,0.369485 c 2.6677,0.785492 0.42606,4.828238 1.29485,6.915709 -0.23745,3.822672 3.41136,5.637722 5.361884,8.039916 0.27514,5.876917 0.90731,11.908085 0.36582,17.838288 -0.18413,2.716027 0.0952,5.478747 -0.13246,8.162199 -1.249104,2.762689 -4.720214,1.302631 -7.042014,1.765455 -2.56023,0.453458 -6.3652,0.844581 -5.22174,-2.967648 -0.41495,-8.59792 -0.51235,-17.23569 -0.60029,-25.851967 1.28777,-1.588557 4.36357,-1.720719 4.18324,-4.365457 0.49214,-3.134664 0.35234,-6.305774 0.54015,-9.457946 0.41713,-0.02189 0.83296,-0.06504 1.25056,-0.07855 z m -5.16299,13.012126 -0.0934,0.02737 z"
         style="opacity:1;vector-effect:none;fill:#000000;fill-opacity:1;stroke:none;stroke-width:1;stroke-linecap:round;stroke-linejoin:round;stroke-miterlimit:4;stroke-dasharray:none;stroke-dashoffset:0;stroke-opacity:1;paint-order:normal" />
      <path
         sodipodi:nodetypes="ccccccccccccccccccccccccccccccccccccccccccccccccccccc"
         inkscape:connector-curvature="0"
         id="path823"
         d="m 51.251156,48.326 c -1.356333,0.340399 -1.607291,2.309854 -3.195992,2.50218 -1.498912,0.52424 -3.08488,0.58451 -4.654425,0.618604 -2.477641,0.08582 -4.92882,0.444116 -7.376536,0.814782 -1.364745,0.139416 -2.728537,0.369945 -4.102015,0.339447 -1.446755,0.368699 -0.403979,2.317951 0.822618,1.719394 2.719875,-0.150016 5.401826,-0.631589 8.101298,-0.956471 1.964757,-0.200194 3.957858,-0.135805 5.909242,-0.431906 1.804947,-0.365955 3.793955,-0.987319 4.785196,-2.676948 1.747326,0.613513 3.563098,0.950486 5.395174,1.194065 1.309322,0.255455 2.669505,0.37992 3.920021,0.840435 -2.678707,0.09215 -5.272841,0.875618 -7.943291,1.056249 -0.971473,-0.114861 -1.642473,0.18888 -1.067411,1.249206 0.151376,1.305745 2.228699,0.216247 3.18494,0.300696 1.694116,-0.382045 3.421973,-0.502187 5.155261,-0.450955 1.007837,-0.309447 2.839196,1.490151 0.863713,1.332198 -1.772271,0.38626 -3.584725,0.458438 -5.371192,0.767127 -1.28488,0.201629 -2.611734,0.400281 -3.899366,0.262075 -0.385569,-0.214206 0.309139,1.327779 -0.112151,1.856737 0,0 2.167565,0.100953 3.182113,-0.142705 1.647184,-0.07207 3.256396,-0.501184 4.884973,-0.663009 0.861038,0.09202 3.211724,0.04756 2.610175,1.365809 -0.942816,1.1797 -2.363967,-0.154268 -3.572642,0.245652 -2.431439,0.346657 -4.851294,0.912905 -7.308347,0.959443 0.05219,1.009224 -0.128461,2.311498 1.275892,1.675349 2.249334,-0.1115 4.484529,-0.413448 6.736725,-0.473316 1.073886,-0.465555 2.443501,0.300813 1.775415,1.488242 -2.629868,0.80151 -5.417447,0.740264 -8.139414,0.808781 -1.455189,-0.122486 -3.095699,0.283228 -4.429016,-0.322929 -0.958538,-0.798584 -1.656816,-1.938666 -2.861617,-2.431061 -1.697897,-1.010113 -3.670252,-1.419881 -5.621909,-1.551363 -2.75998,-0.299977 -5.569894,-0.219795 -8.300561,0.274979 -1.400363,0.67964 0.07707,2.294001 1.19494,1.555538 2.020345,-0.190984 4.055748,-0.391607 6.086171,-0.170918 2.468517,0.14967 5.14142,0.5827 7.018901,2.324314 0.879636,1.121635 2.071148,2.237079 3.615346,2.033461 3.133796,0.133958 6.283174,0.02907 9.403897,-0.283435 1.3358,-0.309523 3.201644,-0.247544 3.814554,-1.74058 0.724754,-1.075849 -0.902886,-2.477458 0.47766,-3.038811 1.104696,-0.984848 1.006613,-2.933266 -0.306099,-3.683437 1.433123,-0.850011 0.1744,-2.596448 -0.158306,-3.245773 1.365692,-0.767001 0.353666,-2.71825 -0.977542,-2.79572 -3.001894,-1.19 -6.3314,-1.037325 -9.374124,-2.080471 C 52.193127,48.677425 51.769068,48.32782 51.251156,48.326 Z m 0.583425,13.85652 c -0.123396,-0.01475 -0.113543,0.06661 0,0 z m -0.04341,-12.386326 c 1.56e-4,0.037 -0.09472,0.126492 0,0 z m 10.199378,2.920754 c 0.110398,0.07303 0.02049,0.01928 0,0 z m -9.790618,2.449978 -0.02584,0.0026 z"
         style="opacity:1;vector-effect:none;fill:#000000;fill-opacity:1;stroke:none;stroke-width:1;stroke-linecap:round;stroke-linejoin:round;stroke-miterlimit:4;stroke-dasharray:none;stroke-dashoffset:0;stroke-opacity:1;paint-order:normal" />
      <path
         sodipodi:nodetypes="ccscccscccssccscsccscccscccscscscccscsccsccsccsccscc"
         inkscape:connector-curvature="0"
         id="path829"
         d="M 49.214441,63.72331 C 48.8263,63.604837 48.556449,63.398386 47.702538,62.566631 46.870394,61.75608 46.483872,61.457519 45.764385,61.069552 44.180939,60.215713 42.773707,59.833813 40.295138,59.58529 c -2.408137,-0.241464 -6.509324,-0.147124 -7.909848,0.181951 -0.306927,0.07212 -0.423489,-0.495744 -0.471837,-2.298647 -0.0232,-0.864957 -0.0581,-1.894575 -0.07757,-2.288037 l -0.0354,-0.715383 1.783186,-0.159189 c 0.980752,-0.08755 3.049172,-0.329893 4.596487,-0.538536 1.823963,-0.245943 3.672829,-0.428828 5.257472,-0.520054 2.734958,-0.157451 3.43472,-0.245817 4.595638,-0.580345 1.356037,-0.390753 2.131893,-0.818306 2.904786,-1.600758 l 0.684178,-0.692637 1.205704,0.327853 c 0.663136,0.180319 2.460111,0.53876 3.993277,0.796539 1.533165,0.257775 2.978925,0.527634 3.212798,0.599683 l 0.425222,0.130998 -0.661458,0.07232 c -0.363802,0.03978 -1.809559,0.259575 -3.212798,0.488439 -1.403237,0.228865 -2.997822,0.441796 -3.543525,0.473181 -1.162214,0.06684 -1.418077,0.180219 -1.415989,0.627454 0.0021,0.439217 0.227846,1.024689 0.471178,1.221727 0.237762,0.192527 0.765164,0.217556 1.41728,0.06726 0.431329,-0.09941 1.453621,-0.264152 3.165552,-0.510122 0.519715,-0.07467 1.674153,-0.145148 2.565415,-0.156609 1.425438,-0.01834 1.652903,-2.17e-4 1.889882,0.150529 0.467275,0.297236 0.694627,0.550159 0.694627,0.772758 0,0.170744 -0.06376,0.224962 -0.307105,0.261146 -1.807003,0.268693 -2.511555,0.36611 -3.850632,0.532427 -0.857533,0.106508 -1.984375,0.263721 -2.504093,0.349364 -0.531403,0.08757 -1.513441,0.158355 -2.243974,0.161753 -1.483516,0.0069 -1.364371,-0.0907 -1.208201,0.989703 0.06814,0.471363 0.05724,0.678251 -0.04915,0.932857 0.153949,0.477296 1.133713,-0.08629 1.715543,-0.05172 0.798833,0.05634 2.608511,-0.1215 4.620601,-0.454073 1.657734,-0.274002 2.675033,-0.271724 3.614669,0.0081 0.837274,0.249331 1.023101,0.881775 0.375169,1.276835 -0.375222,0.228782 -0.881836,0.23686 -1.898516,0.03027 l -0.768405,-0.156139 -2.698358,0.439481 c -1.484096,0.241713 -3.259403,0.489378 -3.945126,0.550365 l -1.246769,0.110884 v 0.600996 c 0,0.330549 0.06161,0.748459 0.136919,0.928693 0.15635,0.3742 0.268703,0.393536 1.349608,0.232269 0.785812,-0.117239 5.270433,-0.47154 5.968605,-0.47154 0.279228,0 0.672079,-0.04925 0.873004,-0.109453 0.94828,-0.284112 1.909302,0.571675 1.500261,1.335977 -0.104182,0.194662 -1.215472,0.487074 -2.505109,0.659164 -2.273141,0.303329 -8.690007,0.390935 -9.543899,0.130294 z"
         style="opacity:1;vector-effect:none;fill:#ffffff;fill-opacity:1;stroke:none;stroke-width:0.35714287;stroke-linecap:round;stroke-linejoin:round;stroke-miterlimit:4;stroke-dasharray:none;stroke-dashoffset:0;stroke-opacity:1;paint-order:normal" />
    </g>
    <path
       style="opacity:1;vector-effect:none;fill:#000000;fill-opacity:1;stroke:none;stroke-width:1;stroke-linecap:round;stroke-linejoin:round;stroke-miterlimit:4;stroke-dasharray:none;stroke-dashoffset:0;stroke-opacity:1;paint-order:normal"
       id="path880"
       d="m 20.429829,157.68591 c 0.809881,0.0532 1.62329,0.0173 2.433544,-0.0115 0.945412,-0.0404 1.890018,-0.0968 2.834918,-0.14731 0.682668,-0.0478 1.365781,-0.0868 2.048166,-0.13836 0.772208,-0.0548 1.545368,-0.0934 2.31875,-0.12685 0.673606,-0.0245 1.347479,-0.0402 2.021255,-0.059 0.509075,-0.001 1.017564,0.0279 1.526138,0.0469 0.462294,0.009 0.923209,0.0387 1.384052,0.0751 0.439485,0.0351 0.879829,0.0558 1.320251,0.0745 0.52391,0.007 1.046428,0.0317 1.569141,0.0668 0.475044,0.0281 0.949949,0.0462 1.423767,0.0912 0.478466,0.0483 0.954454,0.11626 1.433104,0.16357 0.594508,0.0455 1.188469,0.0976 1.783138,0.14133 0.60293,0.0408 1.206987,0.0609 1.810904,0.0803 0.685284,0.0248 1.369195,0.036 2.054111,0.002 0.817597,-0.0495 1.635389,-0.0956 2.453545,-0.13489 0.710898,-0.0313 1.42227,-0.0473 2.13366,-0.0618 0.649076,-0.002 1.297245,-0.023 1.945601,-0.0514 0.692946,-0.0324 1.386419,-0.0542 2.079948,-0.0694 0.685535,-0.0274 1.370311,-0.0682 2.054859,-0.11325 0.734994,-0.0524 1.470735,-0.0905 2.206729,-0.12512 0.637619,-0.0242 1.275445,-0.0411 1.913419,-0.0518 0.625596,-0.009 1.251302,-0.0102 1.876956,-0.0102 0.769327,0.009 1.538666,0.007 2.308027,0.006 0.812318,-8e-4 1.624632,0.002 2.43695,0.001 0.753136,-0.003 1.506265,-0.008 2.259404,-0.01 0.780238,0.006 1.560489,0.007 2.340745,0.007 0.994058,0.0111 1.988116,0.0191 2.982219,0.0256 1.169641,0.009 2.338761,-0.035 3.508095,-0.055 1.112697,-0.0373 2.224431,-0.0966 3.337142,-0.13337 1.003551,-0.0371 2.004626,-0.11626 3.006457,-0.18286 0.866699,-0.0525 1.733839,-0.0986 2.601384,-0.13465 0.653267,-0.0262 1.306917,-0.0404 1.960586,-0.0514 0.622742,-0.007 1.245523,-0.008 1.868292,-0.0106 0.615103,-0.018 1.229349,-0.056 1.84432,-0.0779 0.678842,-0.0262 1.35826,-0.028 2.03749,-0.033 0.793446,-0.002 1.586889,-0.006 2.380332,-0.008 0.787276,-0.003 1.574543,-0.008 2.361822,-0.005 0.9091,0.008 1.81822,0.01 2.72734,0.0114 0.97731,0.005 1.95466,0.002 2.93197,-8e-4 0.93815,0.002 1.87629,-0.001 2.81443,-0.004 0.87165,10e-4 1.74329,-0.002 2.61492,-0.007 0.78767,-0.01 1.57532,-0.002 2.36297,0.002 0.85592,0.003 1.71184,-0.002 2.56775,0.002 0.87211,0.002 1.74423,-2.7e-4 2.61634,-0.002 0.76627,-0.003 1.5325,-0.01 2.29877,-0.0111 0.69838,-0.0196 1.39634,-0.0519 2.09467,-0.0735 0.75946,-0.0227 1.51926,-0.0274 2.27898,-0.0339 0.79946,-0.007 1.59895,-0.008 2.39841,-0.0142 0.72592,-0.004 1.45182,-0.009 2.17773,-0.0126 0.798,0.003 1.59591,0.0126 2.3939,0.0137 0.84354,-0.006 1.68744,0.0104 2.53073,-0.0133 0.74659,-0.0272 1.49276,-0.0626 2.23961,-0.0826 0.73825,-0.0267 1.47711,-0.0226 2.2157,-0.0288 0.75169,-0.004 1.50334,-0.0115 2.25501,-0.0184 0.61293,-0.01 1.22592,-0.0124 1.83892,-0.0103 0.71378,-2.3e-4 1.42746,0.0128 2.14125,0.0135 0.84408,0.002 1.68817,0.005 2.53227,0.006 0.7992,7.9e-4 1.59837,-0.007 2.39754,-0.0133 0.60969,-0.004 1.21942,-0.0215 1.82897,-0.004 0.5383,0.0264 1.0765,0.0538 1.61511,0.0731 0.50146,0.0183 1.00324,0.0226 1.50495,0.0286 0.45854,0.002 0.91704,0.006 1.37554,0.0129 0.61598,0.004 1.2317,0.0138 1.84719,0.0388 0.68078,0.0355 1.36206,0.0575 2.04351,0.0744 0.65648,0.0123 1.31307,0.0183 1.96964,0.0231 0.61685,0.003 1.23369,0.006 1.85054,0.007 0.65302,0.005 1.30604,0.007 1.95907,0.009 0.68087,0.003 1.36174,-5.3e-4 2.04261,5.3e-4 0.65445,5.3e-4 1.3089,-0.001 1.96335,-0.004 0.63717,-2.6e-4 1.27432,-0.001 1.91148,0.004 0.80817,0.0234 1.61608,-0.009 2.42376,-0.034 0.93723,-0.0236 1.87458,-0.0368 2.81202,-0.0476 0.81507,-0.0244 1.62921,-0.0707 2.44338,-0.11478 0.51927,-0.0301 1.03891,-0.0512 1.55879,-0.0666 0.48374,-0.0127 0.96764,-0.01 1.45147,-0.007 0.59048,0.001 1.18097,0.002 1.77144,-0.003 0.45948,-0.005 0.91894,-0.0116 1.37841,-0.0165 0.36645,-0.003 0.73291,-0.004 1.09937,-0.002 0.35295,2.5e-4 0.7059,-0.002 1.05884,-0.004 0.32248,-0.003 0.64451,-0.008 0.96663,0.008 0.28862,0.0256 0.57677,0.0559 0.86591,0.0752 0.30214,0.0203 0.60502,0.0263 0.90771,0.032 0.0491,7.9e-4 0.0982,0.002 0.14732,0.002 1.76029,0.0333 1.71315,2.52276 -0.0471,2.48943 v 0 c -0.0519,-0.001 -0.10379,-0.002 -0.15569,-0.003 -0.33703,-0.009 -0.674,-0.0197 -1.01078,-0.0354 -0.28856,-0.0177 -0.57645,-0.0414 -0.86387,-0.0728 -0.26798,-0.0271 -0.54099,0.006 -0.80982,-0.01 -0.3528,-0.002 -0.7056,-0.004 -1.05841,-0.004 -0.36598,0.003 -0.73198,0.002 -1.09796,-5.3e-4 -0.45872,-0.004 -0.91742,-0.009 -1.37614,-0.0131 -0.58729,-0.003 -1.17457,-5.3e-4 -1.76182,0.007 -0.47059,0.008 -0.94115,0.0175 -1.41176,0.0246 -0.5064,0.007 -1.01279,0.0161 -1.51914,0.0261 -0.83595,0.0189 -1.67153,0.0486 -2.50735,0.0716 -0.92207,0.0121 -1.84424,0.0282 -2.76582,0.0612 -0.83302,0.0271 -1.66582,0.0641 -2.49942,0.0656 -0.63722,0.006 -1.27443,0.005 -1.91167,0.004 -0.6546,-0.002 -1.3092,-0.005 -1.96381,-0.004 -0.68137,5.3e-4 -1.36273,-0.003 -2.04409,-0.002 -0.65485,7.9e-4 -1.30969,0.002 -1.96454,0.003 -0.62166,-0.003 -1.24334,-0.005 -1.86497,-0.0125 -0.66843,-0.007 -1.3368,-0.0168 -2.00506,-0.0343 -0.6956,-0.0157 -1.39113,-0.0361 -2.08626,-0.0665 -0.58606,-0.0246 -1.17158,-0.0185 -1.75804,-0.0128 -0.4666,0.003 -0.93316,5.3e-4 -1.39968,-0.01 -0.51944,-0.009 -1.03878,-0.0226 -1.55804,-0.0387 -0.53626,-0.0195 -1.07216,-0.046 -1.60798,-0.0749 -0.58213,-0.0227 -1.16527,-0.008 -1.74766,-0.022 -0.79913,-0.006 -1.59826,-0.0139 -2.39742,-0.013 -0.84392,0.001 -1.68784,0.005 -2.53176,0.007 -0.71305,0.001 -1.42599,0.0145 -2.13904,0.0159 -0.61131,0.004 -1.22262,0.003 -1.83392,-0.003 -0.7472,-0.002 -1.49442,-0.004 -2.24159,0.004 -0.72397,0.007 -1.44772,0.0258 -2.17159,0.0386 -0.75057,0.0205 -1.50107,0.0429 -2.25157,0.0657 -0.86106,0.0147 -1.72228,0.002 -2.58343,0.006 -0.79722,0.002 -1.59434,0.0119 -2.39155,0.0166 -0.72416,-0.002 -1.44832,-0.004 -2.17248,-0.004 -0.79387,-1.8e-4 -1.58773,0.005 -2.38155,0.0132 -0.74286,0.009 -1.48567,0.0234 -2.22826,0.0459 -0.72362,0.023 -1.44687,0.0559 -2.17065,0.0734 -0.76627,-0.001 -1.5325,-0.008 -2.29877,-0.0111 -0.87211,-0.001 -1.74423,-0.004 -2.61634,-0.002 -0.8559,0.005 -1.71182,-7.9e-4 -2.56774,0.002 -0.78765,0.004 -1.57529,0.0124 -2.36295,0.002 -0.87161,-0.005 -1.74323,-0.009 -2.61486,-0.007 -0.93809,-0.003 -1.87618,-0.005 -2.81428,-0.004 -0.97715,-0.003 -1.95433,-0.005 -2.93147,1.8e-4 -0.90844,0.002 -1.8169,0.005 -2.72531,0.0144 -0.785376,0.004 -1.57076,0.002 -2.356146,0.004 -0.786837,0.003 -1.573724,0.006 -2.360454,0.02 -0.658471,0.0106 -1.316813,0.0271 -1.974996,0.0495 -0.641768,0.0251 -1.283313,0.0556 -1.925193,0.0775 -0.615357,0.002 -1.230704,0.008 -1.846019,0.0154 -0.638283,0.006 -1.276556,0.0138 -1.914718,0.0279 -0.844108,0.0193 -1.688266,0.0412 -2.531192,0.0921 -1.027202,0.0599 -2.053235,0.14121 -3.081745,0.17635 -1.120632,0.032 -2.241108,0.068 -3.361504,0.10723 -1.185403,0.0289 -2.37094,0.0647 -3.556702,0.0697 -0.994076,0.007 -1.98811,0.0145 -2.982142,0.0257 -0.780177,5.3e-4 -1.560346,0.002 -2.340502,0.008 -0.752951,-0.001 -1.505894,-0.007 -2.258843,-0.009 -0.811654,2.6e-4 -1.623295,0.003 -2.434947,0.004 -0.766709,0.001 -1.533416,7.9e-4 -2.30002,0.0158 -0.61703,0.006 -1.234049,0.0111 -1.851049,0.0194 -0.618395,0.008 -1.236866,0.0159 -1.85497,0.0377 -0.709827,0.0222 -1.419468,0.0556 -2.127607,0.11007 -0.724167,0.057 -1.449316,0.0965 -2.174999,0.12894 -0.674069,0.0154 -1.348087,0.0324 -2.021528,0.0666 -0.672571,0.0329 -1.344988,0.0608 -2.018575,0.0567 -0.691449,0.008 -1.382895,0.0213 -2.074,0.0452 -0.806392,0.0275 -1.612336,0.0653 -2.417194,0.12306 -0.7523,0.0468 -1.50396,0.061 -2.257517,0.0317 -0.638749,-0.0151 -1.27712,-0.0416 -1.914565,-0.0861 -0.611613,-0.0414 -1.222277,-0.0957 -1.834613,-0.12619 -0.481539,-0.0407 -0.959959,-0.10662 -1.440843,-0.15293 -0.451513,-0.0418 -0.904013,-0.0652 -1.356422,-0.0956 -0.495424,-0.0327 -0.990607,-0.0605 -1.487378,-0.0608 -0.477535,-0.0118 -0.954997,-0.0322 -1.430957,-0.074 -0.433105,-0.0336 -0.865786,-0.0598 -1.30031,-0.0669 -0.459454,-0.0232 -0.918569,-0.0531 -1.378358,-0.0691 -0.656228,0.003 -1.312458,0.0118 -1.968329,0.0346 -0.740912,0.0243 -1.481826,0.0565 -2.220492,0.12111 -0.716686,0.0589 -1.434016,0.10959 -2.152444,0.14221 -0.938184,0.0166 -1.876421,0.0375 -2.813646,0.0849 -0.847346,0.0472 -1.694973,0.0907 -2.541072,0.15731 -1.768302,0 -1.768302,-2.50075 0,-2.50075 z"
       inkscape:connector-curvature="0"
       inkscape:export-xdpi="197.98991"
       inkscape:export-ydpi="197.98991" />
    <path
       inkscape:export-ydpi="197.98991"
       inkscape:export-xdpi="197.98991"
       style="opacity:1;vector-effect:none;fill:#000000;fill-opacity:1;stroke:none;stroke-width:1;stroke-linecap:round;stroke-linejoin:round;stroke-miterlimit:4;stroke-dasharray:none;stroke-dashoffset:0;stroke-opacity:1;paint-order:normal"
       d="m 167.52694,109.50526 c -2.70878,-0.71586 -5.09654,1.62137 -4.31336,4.3432 -0.42431,2.82742 0.82388,6.61217 -1.50936,8.60089 -2.64396,0.66619 -3.65216,3.41481 -3.13524,5.89768 0.14615,8.52113 0.30914,17.05228 0.6412,25.56916 -0.18934,2.95784 2.95513,4.27332 5.44259,3.46212 3.36344,-0.71126 7.18483,0.55894 10.2404,-1.33918 2.43141,-2.29624 1.36189,-5.89055 1.59782,-8.8445 -0.11124,-6.9593 1.72913,-17.10802 -1.02673,-22.85842 -2.02082,-1.31712 -4.58085,-2.53498 -4.64211,-5.37267 -0.42155,-2.93227 0.77256,-6.3367 -0.95654,-8.91788 -0.66644,-0.4988 -1.53852,-0.54501 -2.33867,-0.5404 z m 0.55707,2.12287 0.0268,0.10004 z m -1.02888,0.36948 c 2.6677,0.78549 0.42606,4.82824 1.29485,6.91571 -0.23745,3.82267 3.41136,5.63772 5.36189,8.03991 0.27514,5.87692 0.90731,11.90809 0.36582,17.83829 -0.18413,2.71603 0.0952,5.47875 -0.13246,8.1622 -1.24911,2.76269 -4.72022,1.30263 -7.04202,1.76546 -2.56023,0.45345 -6.3652,0.84458 -5.22174,-2.96765 -0.41495,-8.59792 -0.51235,-17.23569 -0.60029,-25.85197 1.28777,-1.58856 4.36357,-1.72072 4.18324,-4.36545 0.49214,-3.13467 0.35234,-6.30578 0.54015,-9.45795 0.41713,-0.0219 0.83296,-0.065 1.25056,-0.0786 z m -5.16299,13.01213 -0.0934,0.0274 z"
       id="path928"
       inkscape:connector-curvature="0"
       sodipodi:nodetypes="cccccccccccccccccccccccccccccc" />
    <path
       style="fill:none;stroke:#000000;stroke-width:1.5;stroke-linecap:butt;stroke-linejoin:bevel;stroke-miterlimit:4;stroke-dasharray:none;stroke-opacity:1"
       d="m 166.37528,155.21351 -4.40995,-6.81537 4.54358,-3.0736 -0.66817,-5.47902 5.07812,-2.6727 -5.74629,-8.41899 2.13815,-3.0736 -3.60814,-3.20723"
       id="path930"
       inkscape:connector-curvature="0"
       sodipodi:nodetypes="cccccccc" />
    <path
       style="fill:none;stroke:#000000;stroke-width:1.5;stroke-linecap:butt;stroke-linejoin:miter;stroke-opacity:1;stroke-miterlimit:4;stroke-dasharray:none"
       d="m 168.7807,138.10826 2.40543,9.75534 -1.60362,2.40543 4.00905,3.74177"
       id="path934"
       inkscape:connector-curvature="0" />
    <path
       style="fill:none;stroke:#000000;stroke-width:1.5;stroke-linecap:butt;stroke-linejoin:miter;stroke-opacity:1;stroke-miterlimit:4;stroke-dasharray:none"
       d="m 167.31072,131.96107 8.15172,-4.14268"
       id="path936"
       inkscape:connector-curvature="0" />
    <path
       style="fill:none;stroke:#000000;stroke-width:1.5;stroke-linecap:butt;stroke-linejoin:bevel;stroke-opacity:1;stroke-miterlimit:4;stroke-dasharray:none"
       d="m 169.04798,134.7674 -5.47903,-0.13364 -0.66817,-4.81085 -1.87089,3.74177"
       id="path938"
       inkscape:connector-curvature="0" />
  </g>
</svg>
